<?xml version="1.0" encoding="utf-8"?>
<!-- Generator: Adobe Illustrator 21.1.0, SVG Export Plug-In . SVG Version: 6.00 Build 0)  -->
<svg version="1.1" id="Layer_1" xmlns="http://www.w3.org/2000/svg" xmlns:xlink="http://www.w3.org/1999/xlink" x="0px" y="0px"
	 viewBox="0 0 512 512" style="enable-background:new 0 0 512 512;" xml:space="preserve">
<style type="text/css">
	.st0{fill:#FFFFFF;}
</style>
<g>
	<path class="st0" d="M244,482.4c56.6,0,102.7-46.1,102.7-102.7V164.6c0-6-4.8-10.8-10.8-10.8s-10.8,4.8-10.8,10.8v215.2
		c0,44.7-36.4,81.1-81.1,81.1s-81.1-36.4-81.1-81.1V102.8c0-28.5,23.2-51.7,51.7-51.7s51.7,23.2,51.7,51.7v276.9
		c0,12.3-10,22.3-22.3,22.3s-22.3-10-22.3-22.3V170.2c0-6-4.8-10.8-10.8-10.8s-10.8,4.8-10.8,10.8v209.5c0,24.2,19.7,43.9,43.9,43.9
		s43.9-19.7,43.9-43.9V102.8c0-40.4-32.9-73.3-73.3-73.3c-40.4,0-73.3,32.9-73.3,73.3v276.9C141.4,436.4,187.4,482.4,244,482.4"/>
</g>
</svg>
