<?xml version="1.0" encoding="iso-8859-1"?>
<!-- Generator: Adobe Illustrator 21.1.0, SVG Export Plug-In . SVG Version: 6.00 Build 0)  -->
<svg version="1.1" id="Layer_1" xmlns="http://www.w3.org/2000/svg" xmlns:xlink="http://www.w3.org/1999/xlink" x="0px" y="0px"
	 viewBox="0 0 512 512" style="enable-background:new 0 0 512 512;" xml:space="preserve">
<g>
	<path d="M244.037,482.438c56.61,0,102.676-46.067,102.676-102.676V164.61c0-5.96-4.819-10.778-10.779-10.778
		c-5.96,0-10.778,4.819-10.778,10.778v215.152c0,44.726-36.393,81.101-81.119,81.101s-81.119-36.375-81.119-81.101V102.837
		c0-28.513,23.205-51.718,51.718-51.718c28.513,0,51.7,23.205,51.7,51.718v276.925c0,12.282-10,22.3-22.3,22.3
		c-12.3,0-22.3-10.018-22.3-22.3V170.225c0-5.96-4.819-10.778-10.778-10.778s-10.778,4.819-10.778,10.778v209.537
		c0,24.184,19.673,43.857,43.857,43.857s43.875-19.673,43.875-43.857V102.837c0-40.415-32.879-73.275-73.275-73.275
		c-40.415,0-73.275,32.861-73.275,73.275v276.925C141.361,436.372,187.427,482.438,244.037,482.438"/>
</g>
</svg>
